<svg width="1280" height="720" xmlns="http://www.w3.org/2000/svg" xmlns:xlink="http://www.w3.org/1999/xlink" overflow="hidden"><defs><clipPath id="clip0"><rect x="0" y="0" width="1280" height="720"/></clipPath></defs><g clip-path="url(#clip0)"><rect x="0" y="0" width="1280" height="720" fill="#FFFFFF" fill-opacity="0"/><path d="M471.5 330.5 471.5 493.923" stroke="#F2F2F2" stroke-width="20.6667" stroke-linecap="square" stroke-miterlimit="8" fill="none" fill-rule="evenodd"/><path d="M0 0 2.03811 257.092" stroke="#F2F2F2" stroke-width="20.6667" stroke-linecap="square" stroke-miterlimit="8" fill="none" fill-rule="evenodd" transform="matrix(-1 0 0 1 537.538 264.5)"/><path d="M598.5 399.5 598.5 522.193" stroke="#F2F2F2" stroke-width="20.6667" stroke-linecap="square" stroke-miterlimit="8" fill="none" fill-rule="evenodd"/><path d="M581.703 463.908 508 390" stroke="#6CC0B0" stroke-width="28" stroke-linecap="round" stroke-miterlimit="8" fill="none" fill-rule="evenodd"/><path d="M661.5 359.5 661.5 500.682" stroke="#F2F2F2" stroke-width="20.6667" stroke-linecap="square" stroke-miterlimit="8" fill="none" fill-rule="evenodd"/><path d="M0 0 121.144 134.658" stroke="#6CC0B0" stroke-width="28" stroke-linecap="round" stroke-miterlimit="8" fill="none" fill-rule="evenodd" transform="matrix(-1 0 0 1 506.144 391)"/><path d="M412 376C412 287.082 482.963 215 570.5 215 658.037 215 729 287.082 729 376 729 464.918 658.037 537 570.5 537 482.963 537 412 464.918 412 376Z" stroke="#F2F2F2" stroke-width="16.3333" stroke-miterlimit="8" fill="none" fill-rule="evenodd"/><path d="M31.2033 2.52193 252.332 136.367C258.947 140.371 261.063 148.979 257.06 155.594 253.056 162.208 244.448 164.325 237.833 160.321L16.7045 26.4757C10.0898 22.472 7.97322 13.8641 11.977 7.24943 15.9807 0.63477 24.5886-1.4818 31.2033 2.52193ZM23.9538 14.4988 26.1594 64.9283 0 0 69.6558-6.93311Z" fill="#6CC0B0" transform="matrix(-1 0 0 1 827.083 315)"/><text fill="#F2F2F2" font-family="Cascadia Code SemiBold,Cascadia Code SemiBold_MSFontService,sans-serif" font-weight="600" font-size="53" transform="translate(684.182 535)">dri</text><path d="M0 0 216.296 0.000104987" stroke="#F2F2F2" stroke-width="6.66667" stroke-miterlimit="8" fill="none" fill-rule="evenodd" transform="matrix(-1 0 0 1 782.796 542.5)"/></g></svg>